<svg width="98" height="98" viewBox="0 0 98 98" fill="none" xmlns="http://www.w3.org/2000/svg">
<rect x="6.5" y="6.5" width="85" height="85" rx="19.5" fill="#5F33E1" stroke="#5F34DE" stroke-width="13"/>
<path fill-rule="evenodd" clip-rule="evenodd" d="M72.8323 31.8023C73.1658 32.089 73.4398 32.4388 73.6385 32.8318C73.8372 33.2247 73.9567 33.6531 73.9902 34.0924C74.0238 34.5316 73.9707 34.9733 73.8339 35.392C73.6972 35.8107 73.4795 36.1982 73.1934 36.5325L46.4448 67.8291C46.1449 68.1799 45.7759 68.4649 45.361 68.6659C44.9461 68.867 44.4942 68.9799 44.0337 68.9976C43.5732 69.0152 43.1141 68.9372 42.6851 68.7684C42.2561 68.5996 41.8666 68.3438 41.5409 68.0168L25.9375 52.3686C25.3287 51.7359 24.9921 50.8887 25.0001 50.0095C25.0082 49.1303 25.3602 48.2894 25.9804 47.668C26.6006 47.0466 27.4394 46.6943 28.3161 46.6871C29.1928 46.6799 30.0372 47.0183 30.6675 47.6294L43.7209 60.7158L68.1201 32.1689C68.6973 31.4946 69.5179 31.0777 70.4014 31.0098C71.285 30.9419 72.1593 31.2241 72.8323 31.8023Z" fill="white"/>
</svg>
