<svg width="98" height="98" viewBox="0 0 98 98" fill="none" xmlns="http://www.w3.org/2000/svg">
<rect x="6.5" y="6.5" width="85" height="85" rx="19.5" fill="#EDE4FF" stroke="#EDE4FF" stroke-width="13"/>
<path opacity="0.5" d="M68.414 41.1052C69.2356 40.2835 69.8873 39.3079 70.3319 38.2343C70.7765 37.1607 71.0053 36.01 71.0052 34.848C71.0051 33.6859 70.7761 32.5353 70.3313 31.4618C69.8865 30.3882 69.2346 29.4128 68.4129 28.5912C67.5911 27.7696 66.6156 27.1179 65.5419 26.6733C64.4683 26.2287 63.3176 25.9999 62.1556 26C59.8088 26.0002 57.5581 26.9327 55.8988 28.5923L53.903 30.5882L53.9885 30.8379C54.9727 33.6524 56.583 36.2067 58.698 38.3083C60.862 40.4855 63.5049 42.1267 66.4159 43.1011L68.414 41.1052Z" fill="#5F34DE"/>
<path d="M53.9906 30.5002L53.9029 30.5857L53.9884 30.8378C54.9726 33.6522 56.5829 36.2066 58.6979 38.3082C60.8619 40.4854 63.5048 42.1266 66.4158 43.1009L47.1548 62.362C45.8542 63.6603 45.2039 64.3106 44.4884 64.8686C43.6439 65.5269 42.7302 66.0912 41.7635 66.5517C40.9444 66.9432 40.0736 67.2335 38.3298 67.814L29.1426 70.8764C28.7221 71.0172 28.2708 71.038 27.8392 70.9366C27.4076 70.8351 27.0128 70.6153 26.6992 70.3019C26.3856 69.9885 26.1655 69.5939 26.0637 69.1624C25.9619 68.7309 25.9824 68.2795 26.1229 67.859L29.1876 58.6695C29.7681 56.9279 30.0584 56.0571 30.4476 55.2381C30.9089 54.2705 31.4737 53.357 32.133 52.5109C32.691 51.7954 33.3413 51.1474 34.6396 49.849L53.9906 30.5002Z" fill="#5F34DE"/>
</svg>
