<svg width="98" height="98" viewBox="0 0 98 98" fill="none" xmlns="http://www.w3.org/2000/svg">
<rect x="6.5" y="6.5" width="85" height="85" rx="19.5" fill="#FFE6D4" stroke="#FFE6D4" stroke-width="13"/>
<path d="M22.3333 36C22.3333 35.2133 22.3333 34.82 22.5766 34.5766C22.82 34.3333 23.2133 34.3333 24 34.3333H74C74.7866 34.3333 75.18 34.3333 75.4233 34.5766C75.6666 34.82 75.6666 35.2133 75.6666 36V36.84C75.6666 37.14 75.6666 37.2933 75.62 37.4266C75.5798 37.5415 75.515 37.6462 75.43 37.7333C75.33 37.8333 75.1966 37.9 74.9266 38.0366C72.7566 39.12 71.6733 39.6633 70.8833 40.4766C70.2084 41.1717 69.6931 42.0055 69.3733 42.92C69 43.9866 69 45.2 69 47.6266V64.3333C69 70.62 69 73.76 67.0466 75.7133C65.0933 77.6666 61.9533 77.6666 55.6666 77.6666H42.3333C36.0466 77.6666 32.9066 77.6666 30.9533 75.7133C29 73.76 29 70.62 29 64.3333V47.6266C29 45.2 29 43.9866 28.6266 42.92C28.3068 42.0055 27.7915 41.1717 27.1166 40.4766C26.3266 39.6633 25.2433 39.12 23.0733 38.0366C22.8905 37.9628 22.7207 37.8604 22.57 37.7333C22.485 37.6462 22.4202 37.5415 22.38 37.4266C22.3333 37.2933 22.3333 37.14 22.3333 36.84V36Z" fill="#FF9142" fill-opacity="0.25"/>
<path d="M42.56 25.5667C42.94 25.2133 43.7767 24.9 44.9433 24.6767C46.2822 24.4386 47.6401 24.3237 49 24.3333C50.4667 24.3333 51.8933 24.4533 53.0567 24.6767C54.2233 24.9 55.0567 25.2133 55.44 25.57" stroke="#FF9142" stroke-width="3" stroke-linecap="round"/>
<path d="M59 49.3334C59 48.4129 58.2538 47.6667 57.3333 47.6667C56.4128 47.6667 55.6666 48.4129 55.6666 49.3334V66C55.6666 66.9205 56.4128 67.6667 57.3333 67.6667C58.2538 67.6667 59 66.9205 59 66V49.3334Z" fill="#EC812A"/>
<path d="M42.3333 49.3334C42.3333 48.4129 41.5871 47.6667 40.6667 47.6667C39.7462 47.6667 39 48.4129 39 49.3334V66C39 66.9205 39.7462 67.6667 40.6667 67.6667C41.5871 67.6667 42.3333 66.9205 42.3333 66V49.3334Z" fill="#EC812A"/>
</svg>
